<svg width="140" height="31" viewBox="0 0 140 31" fill="none" xmlns="http://www.w3.org/2000/svg">
<path d="M0 5C0 2.23858 2.23858 0 5 0H135C137.761 0 140 2.23858 140 5V26C140 28.7614 137.761 31 135 31H5C2.23857 31 0 28.7614 0 26V5Z" fill="#FC490B"/>
<path d="M7.831 5.85034L9.21 10.102H13.6655L10.0605 12.5136L11.436 16.6293L7.831 14.085L4.226 16.6327L5.605 12.5136L2 10.0986H6.4555L7.831 5.84694V5.85034ZM16.553 3L16.966 4.27551H18.303L17.218 4.9966L17.6345 6.23129L16.5495 5.46939L15.4715 6.23129L15.8845 4.9966L14.7995 4.27551H16.14L16.553 3V3ZM16.581 17.7653L16.994 19.0408H18.331L17.2495 19.7619L17.6625 21L16.581 20.2347L15.4995 21L15.9125 19.7619L14.831 19.0408H16.168L16.581 17.7653ZM21.25 7.56122L21.663 8.83673H23L21.915 9.55782L22.3315 10.7959L21.2465 10.0306L20.1685 10.7959L20.5815 9.55782L19.4965 8.83673H20.837L21.25 7.56122ZM21.25 13.2313L21.663 14.5068H23L21.915 15.2279L22.3315 16.466L21.2465 15.7007L20.1685 16.466L20.5815 15.2279L19.4965 14.5068H20.837L21.25 13.2313V13.2313Z" fill="#FFEB3B"/>
<path d="M45.224 11.602V12.967H51.633V11.602H45.224ZM45.562 14.202V15.515H51.36V14.202H45.562ZM45.081 17.062V18.336H51.854V17.062H45.081ZM47.694 12.031V17.738H49.137V12.031H47.694ZM49.553 15.931C49.93 16.334 50.372 16.906 50.58 17.27L51.62 16.685C51.399 16.334 50.931 15.788 50.541 15.411L49.553 15.931ZM42.988 9.47V21.157H44.574V10.9H52.296V21.157H53.973V9.47H42.988ZM43.846 19.077V20.507H53.063V19.077H43.846ZM61.448 14.748C62.618 15.853 64.139 17.413 64.828 18.388L66.128 17.387C65.361 16.412 63.788 14.93 62.631 13.89L61.448 14.748ZM61.487 8.963V12.07C61.487 13.773 61.266 16.048 58.458 17.491C58.822 17.764 59.355 18.336 59.576 18.674C62.54 16.906 63.086 14.241 63.086 12.083V8.963H61.487ZM56.924 11.121V21.196H58.484V12.655H66.804V11.121H56.924ZM66.115 11.121V19.363C66.115 19.584 66.037 19.662 65.79 19.675C65.543 19.675 64.672 19.675 63.905 19.636C64.113 20.039 64.36 20.754 64.412 21.183C65.569 21.183 66.401 21.17 66.947 20.923C67.48 20.663 67.662 20.234 67.662 19.389V11.121H66.115ZM70.249 11.381V12.837H75.293V11.381H70.249ZM72.095 9.145V12.096H73.551V9.145H72.095ZM78.361 11.355V12.837H82.144V11.355H78.361ZM76.19 19.09V20.546H80.844V19.09H76.19ZM77.581 8.95V15.723H79.193V8.95H77.581ZM75.501 15.086V21.157H77.009V16.542H80.103V21.105H81.689V15.086H75.501ZM69.963 18.466L70.275 20.026C71.731 19.701 73.655 19.259 75.436 18.83L75.28 17.387C73.369 17.816 71.315 18.232 69.963 18.466ZM70.587 13.448C70.86 14.839 71.068 16.659 71.042 17.842L72.381 17.582C72.355 16.373 72.147 14.618 71.822 13.214L70.587 13.448ZM73.486 13.084C73.421 14.566 73.174 16.594 72.914 17.855L74.214 18.115C74.487 16.906 74.799 14.995 75.007 13.344L73.486 13.084ZM88.982 8.963V13.474H90.568V8.963H88.982ZM86.811 14.241H92.791V15.905H86.811V14.241ZM85.329 12.785V17.348H94.377V12.785H85.329ZM89.71 10.107V11.563H95.235V10.107H89.71ZM87.487 18.336C87.643 19.233 87.747 20.39 87.747 21.092L89.333 20.897C89.307 20.208 89.164 19.077 88.969 18.193L87.487 18.336ZM90.165 18.349C90.529 19.207 90.919 20.338 91.049 21.014L92.583 20.637C92.414 19.935 91.985 18.856 91.582 18.037L90.165 18.349ZM92.804 18.271C93.428 19.142 94.13 20.338 94.403 21.079L95.911 20.494C95.586 19.74 94.832 18.596 94.208 17.764L92.804 18.271ZM85.342 17.868C84.978 18.817 84.341 19.857 83.717 20.416L85.16 21.131C85.836 20.416 86.473 19.298 86.837 18.245L85.342 17.868Z" fill="white"/>
<path d="M106.276 19.9273L105.453 19.1607L109.351 14.9715L105.448 10.6668L106.281 9.91125L110.879 14.9814L106.276 19.9273V19.9273Z" fill="white"/>
</svg>
