<svg width="140" height="31" viewBox="0 0 140 31" fill="none" xmlns="http://www.w3.org/2000/svg">
<path d="M0 5C0 2.23858 2.23858 0 5 0H135C137.761 0 140 2.23858 140 5V26C140 28.7614 137.761 31 135 31H5C2.23857 31 0 28.7614 0 26V5Z" fill="#5F5F5F"/>
<path d="M34.7585 20V11.2727H40.5369V12.794H36.6037V14.8736H40.1534V16.3949H36.6037V20H34.7585ZM44.9409 20.1278C44.2789 20.1278 43.7065 19.9872 43.2236 19.706C42.7434 19.4219 42.3727 19.027 42.1113 18.5213C41.85 18.0128 41.7193 17.4233 41.7193 16.7528C41.7193 16.0767 41.85 15.4858 42.1113 14.9801C42.3727 14.4716 42.7434 14.0767 43.2236 13.7955C43.7065 13.5114 44.2789 13.3693 44.9409 13.3693C45.6028 13.3693 46.1738 13.5114 46.6539 13.7955C47.1369 14.0767 47.5091 14.4716 47.7704 14.9801C48.0318 15.4858 48.1625 16.0767 48.1625 16.7528C48.1625 17.4233 48.0318 18.0128 47.7704 18.5213C47.5091 19.027 47.1369 19.4219 46.6539 19.706C46.1738 19.9872 45.6028 20.1278 44.9409 20.1278ZM44.9494 18.7216C45.2505 18.7216 45.502 18.6364 45.7037 18.4659C45.9054 18.2926 46.0574 18.0568 46.1596 17.7585C46.2647 17.4602 46.3173 17.1207 46.3173 16.7401C46.3173 16.3594 46.2647 16.0199 46.1596 15.7216C46.0574 15.4233 45.9054 15.1875 45.7037 15.0142C45.502 14.8409 45.2505 14.7543 44.9494 14.7543C44.6454 14.7543 44.3897 14.8409 44.1824 15.0142C43.9778 15.1875 43.823 15.4233 43.7179 15.7216C43.6156 16.0199 43.5645 16.3594 43.5645 16.7401C43.5645 17.1207 43.6156 17.4602 43.7179 17.7585C43.823 18.0568 43.9778 18.2926 44.1824 18.4659C44.3897 18.6364 44.6454 18.7216 44.9494 18.7216ZM50.0629 20V13.4545H51.8228V14.5966H51.891C52.0103 14.1903 52.2106 13.8835 52.4918 13.6761C52.7731 13.4659 53.097 13.3608 53.4634 13.3608C53.5543 13.3608 53.6524 13.3665 53.7575 13.3778C53.8626 13.3892 53.9549 13.4048 54.0345 13.4247V15.0355C53.9492 15.0099 53.8313 14.9872 53.6808 14.9673C53.5302 14.9474 53.3924 14.9375 53.2674 14.9375C53.0004 14.9375 52.7617 14.9957 52.5515 15.1122C52.3441 15.2259 52.1793 15.3849 52.0572 15.5895C51.9379 15.794 51.8782 16.0298 51.8782 16.2969V20H50.0629ZM58.3713 20.1278C57.698 20.1278 57.1185 19.9915 56.6327 19.7188C56.1497 19.4432 55.7775 19.054 55.5162 18.5511C55.2548 18.0455 55.1241 17.4474 55.1241 16.7571C55.1241 16.0838 55.2548 15.4929 55.5162 14.9844C55.7775 14.4759 56.1454 14.0795 56.6199 13.7955C57.0971 13.5114 57.6568 13.3693 58.2988 13.3693C58.7307 13.3693 59.1327 13.4389 59.5048 13.5781C59.8798 13.7145 60.2065 13.9205 60.4849 14.196C60.7662 14.4716 60.9849 14.8182 61.1412 15.2358C61.2974 15.6506 61.3756 16.1364 61.3756 16.6932V17.1918H55.8486V16.0668H59.6667C59.6667 15.8054 59.6099 15.5739 59.4963 15.3722C59.3827 15.1705 59.225 15.0128 59.0233 14.8991C58.8244 14.7827 58.5929 14.7244 58.3287 14.7244C58.0531 14.7244 57.8088 14.7884 57.5957 14.9162C57.3855 15.0412 57.2207 15.2102 57.1014 15.4233C56.9821 15.6335 56.921 15.8679 56.9182 16.1264V17.196C56.9182 17.5199 56.9778 17.7997 57.0971 18.0355C57.2193 18.2713 57.3912 18.4531 57.6128 18.581C57.8344 18.7088 58.0971 18.7727 58.4011 18.7727C58.6028 18.7727 58.7875 18.7443 58.9551 18.6875C59.1227 18.6307 59.2662 18.5455 59.3855 18.4318C59.5048 18.3182 59.5957 18.179 59.6582 18.0142L61.3372 18.125C61.252 18.5284 61.0773 18.8807 60.8131 19.1818C60.5517 19.4801 60.2136 19.7131 59.7988 19.8807C59.3869 20.0455 58.9111 20.1278 58.3713 20.1278ZM63.2802 20V13.4545H65.0956V20H63.2802ZM64.1921 12.6108C63.9223 12.6108 63.6907 12.5213 63.4975 12.3423C63.3072 12.1605 63.212 11.9432 63.212 11.6903C63.212 11.4403 63.3072 11.2259 63.4975 11.0469C63.6907 10.8651 63.9223 10.7741 64.1921 10.7741C64.462 10.7741 64.6921 10.8651 64.8825 11.0469C65.0757 11.2259 65.1723 11.4403 65.1723 11.6903C65.1723 11.9432 65.0757 12.1605 64.8825 12.3423C64.6921 12.5213 64.462 12.6108 64.1921 12.6108ZM70.2186 22.5909C69.6305 22.5909 69.1263 22.5099 68.7058 22.348C68.2882 22.1889 67.9558 21.9716 67.7087 21.696C67.4615 21.4205 67.301 21.1108 67.2271 20.767L68.9061 20.5412C68.9572 20.6719 69.0382 20.794 69.149 20.9077C69.2598 21.0213 69.4061 21.1122 69.5879 21.1804C69.7726 21.2514 69.997 21.2869 70.2612 21.2869C70.6561 21.2869 70.9814 21.1903 71.2371 20.9972C71.4956 20.8068 71.6249 20.4872 71.6249 20.0384V18.8409H71.5482C71.4686 19.0227 71.3493 19.1946 71.1902 19.3565C71.0311 19.5185 70.8266 19.6506 70.5766 19.7528C70.3266 19.8551 70.0283 19.9062 69.6817 19.9062C69.1902 19.9062 68.7428 19.7926 68.3393 19.5653C67.9388 19.3352 67.6192 18.9844 67.3805 18.5128C67.1447 18.0384 67.0268 17.4389 67.0268 16.7145C67.0268 15.973 67.1476 15.3537 67.3891 14.8565C67.6305 14.3594 67.9516 13.9872 68.3521 13.7401C68.7555 13.4929 69.1973 13.3693 69.6774 13.3693C70.0439 13.3693 70.3507 13.4318 70.5979 13.5568C70.845 13.679 71.0439 13.8324 71.1945 14.017C71.3479 14.1989 71.4658 14.3778 71.5482 14.554H71.6163V13.4545H73.4189V20.0639C73.4189 20.6207 73.2825 21.0866 73.0098 21.4616C72.7371 21.8366 72.3592 22.1179 71.8763 22.3054C71.3962 22.4957 70.8436 22.5909 70.2186 22.5909ZM70.257 18.5426C70.5496 18.5426 70.7967 18.4702 70.9984 18.3253C71.203 18.1776 71.3592 17.9673 71.4672 17.6946C71.578 17.419 71.6334 17.0895 71.6334 16.706C71.6334 16.3224 71.5794 15.9901 71.4714 15.7088C71.3635 15.4247 71.2072 15.2045 71.0027 15.0483C70.7982 14.892 70.5496 14.8139 70.257 14.8139C69.9587 14.8139 69.7072 14.8949 69.5027 15.0568C69.2982 15.2159 69.1433 15.4375 69.0382 15.7216C68.9331 16.0057 68.8805 16.3338 68.8805 16.706C68.8805 17.0838 68.9331 17.4105 69.0382 17.6861C69.1462 17.9588 69.301 18.1705 69.5027 18.321C69.7072 18.4687 69.9587 18.5426 70.257 18.5426ZM77.3988 16.2159V20H75.5835V13.4545H77.3136V14.6094H77.3903C77.5352 14.2287 77.7781 13.9276 78.119 13.706C78.4599 13.4815 78.8733 13.3693 79.3591 13.3693C79.8136 13.3693 80.2099 13.4688 80.548 13.6676C80.8861 13.8665 81.1488 14.1506 81.3363 14.5199C81.5238 14.8864 81.6176 15.3239 81.6176 15.8324V20H79.8022V16.1562C79.8051 15.7557 79.7028 15.4432 79.4954 15.2188C79.288 14.9915 79.0025 14.8778 78.6389 14.8778C78.3946 14.8778 78.1787 14.9304 77.9912 15.0355C77.8065 15.1406 77.6616 15.294 77.5565 15.4957C77.4542 15.6946 77.4017 15.9347 77.3988 16.2159ZM92.0342 13.7827C92.0001 13.4389 91.8538 13.1719 91.5952 12.9815C91.3367 12.7912 90.9859 12.696 90.5427 12.696C90.2415 12.696 89.9873 12.7386 89.7799 12.8239C89.5725 12.9062 89.4134 13.0213 89.3026 13.169C89.1947 13.3168 89.1407 13.4844 89.1407 13.6719C89.135 13.8281 89.1677 13.9645 89.2387 14.081C89.3126 14.1974 89.4134 14.2983 89.5413 14.3835C89.6691 14.4659 89.8168 14.5384 89.9844 14.6009C90.152 14.6605 90.331 14.7116 90.5214 14.7543L91.3055 14.9418C91.6861 15.027 92.0356 15.1406 92.3538 15.2827C92.6719 15.4247 92.9475 15.5994 93.1805 15.8068C93.4134 16.0142 93.5938 16.2585 93.7217 16.5398C93.8523 16.821 93.9191 17.1435 93.9219 17.5071C93.9191 18.0412 93.7827 18.5043 93.5128 18.8963C93.2458 19.2855 92.8594 19.5881 92.3538 19.804C91.8509 20.017 91.2444 20.1236 90.5342 20.1236C89.8296 20.1236 89.216 20.0156 88.6932 19.7997C88.1734 19.5838 87.7671 19.2642 87.4745 18.8409C87.1847 18.4148 87.0327 17.8878 87.0185 17.2599H88.804C88.8239 17.5526 88.9077 17.7969 89.0555 17.9929C89.206 18.1861 89.4063 18.3324 89.6563 18.4318C89.9091 18.5284 90.1947 18.5767 90.5128 18.5767C90.8253 18.5767 91.0966 18.5312 91.3268 18.4403C91.5597 18.3494 91.7401 18.223 91.868 18.0611C91.9958 17.8991 92.0597 17.7131 92.0597 17.5028C92.0597 17.3068 92.0015 17.142 91.885 17.0085C91.7714 16.875 91.6038 16.7614 91.3822 16.6676C91.1634 16.5739 90.8949 16.4886 90.5768 16.4119L89.6265 16.1733C88.8907 15.9943 88.3097 15.7145 87.8836 15.3338C87.4574 14.9531 87.2458 14.4403 87.2486 13.7955C87.2458 13.267 87.3864 12.8054 87.6705 12.4105C87.9574 12.0156 88.3509 11.7074 88.8509 11.4858C89.3509 11.2642 89.9191 11.1534 90.5555 11.1534C91.2032 11.1534 91.7685 11.2642 92.2515 11.4858C92.7373 11.7074 93.1151 12.0156 93.385 12.4105C93.6549 12.8054 93.7941 13.2628 93.8026 13.7827H92.0342ZM95.849 20V13.4545H97.6643V20H95.849ZM96.7609 12.6108C96.491 12.6108 96.2595 12.5213 96.0663 12.3423C95.876 12.1605 95.7808 11.9432 95.7808 11.6903C95.7808 11.4403 95.876 11.2259 96.0663 11.0469C96.2595 10.8651 96.491 10.7741 96.7609 10.7741C97.0308 10.7741 97.2609 10.8651 97.4512 11.0469C97.6444 11.2259 97.741 11.4403 97.741 11.6903C97.741 11.9432 97.6444 12.1605 97.4512 12.3423C97.2609 12.5213 97.0308 12.6108 96.7609 12.6108ZM103.32 13.4545V14.8182H99.3783V13.4545H103.32ZM100.273 11.8864H102.088V17.9886C102.088 18.1562 102.114 18.2869 102.165 18.3807C102.216 18.4716 102.287 18.5355 102.378 18.5724C102.472 18.6094 102.58 18.6278 102.702 18.6278C102.787 18.6278 102.873 18.6207 102.958 18.6065C103.043 18.5895 103.108 18.5767 103.154 18.5682L103.439 19.919C103.348 19.9474 103.221 19.9801 103.056 20.017C102.891 20.0568 102.691 20.081 102.455 20.0895C102.017 20.1065 101.634 20.0483 101.304 19.9148C100.978 19.7812 100.723 19.5739 100.542 19.2926C100.36 19.0114 100.27 18.6562 100.273 18.2273V11.8864ZM108.135 20.1278C107.462 20.1278 106.882 19.9915 106.397 19.7188C105.914 19.4432 105.541 19.054 105.28 18.5511C105.019 18.0455 104.888 17.4474 104.888 16.7571C104.888 16.0838 105.019 15.4929 105.28 14.9844C105.541 14.4759 105.909 14.0795 106.384 13.7955C106.861 13.5114 107.421 13.3693 108.063 13.3693C108.495 13.3693 108.897 13.4389 109.269 13.5781C109.644 13.7145 109.97 13.9205 110.249 14.196C110.53 14.4716 110.749 14.8182 110.905 15.2358C111.061 15.6506 111.139 16.1364 111.139 16.6932V17.1918H105.612V16.0668H109.431C109.431 15.8054 109.374 15.5739 109.26 15.3722C109.147 15.1705 108.989 15.0128 108.787 14.8991C108.588 14.7827 108.357 14.7244 108.093 14.7244C107.817 14.7244 107.573 14.7884 107.36 14.9162C107.149 15.0412 106.985 15.2102 106.865 15.4233C106.746 15.6335 106.685 15.8679 106.682 16.1264V17.196C106.682 17.5199 106.742 17.7997 106.861 18.0355C106.983 18.2713 107.155 18.4531 107.377 18.581C107.598 18.7088 107.861 18.7727 108.165 18.7727C108.367 18.7727 108.551 18.7443 108.719 18.6875C108.887 18.6307 109.03 18.5455 109.149 18.4318C109.269 18.3182 109.36 18.179 109.422 18.0142L111.101 18.125C111.016 18.5284 110.841 18.8807 110.577 19.1818C110.316 19.4801 109.978 19.7131 109.563 19.8807C109.151 20.0455 108.675 20.1278 108.135 20.1278Z" fill="white"/>
<path d="M123.828 21.016L123.005 20.2495L126.903 16.0603L123 11.7555L123.834 11L128.431 16.0701L123.828 21.016V21.016Z" fill="white"/>
<g clip-path="url(#clip0_13_67)">
<path d="M23.5727 12.6503C23.4777 12.3526 23.37 12.0613 23.2497 11.7763C23.0112 11.211 22.7185 10.6701 22.3757 10.1613C22.192 9.92059 22.0115 9.68626 21.8342 9.45826C20.9426 8.37645 19.8226 7.50537 18.5547 6.90751C17.2867 6.30965 15.9021 5.99982 14.5002 6.00026C13.8621 5.99962 13.2255 6.06328 12.6002 6.19026C11.6872 6.37618 10.8068 6.69632 9.9877 7.14026C8.08581 8.16775 6.59121 9.81315 5.75071 11.8048C5.63037 12.0898 5.52271 12.3716 5.42771 12.6503C5.1411 13.573 4.99694 14.534 5.00021 15.5003C4.99694 16.4665 5.1411 17.4275 5.42771 18.3503C5.52271 18.6479 5.63037 18.9393 5.75071 19.2243C6.10959 20.0713 6.5896 20.8617 7.17571 21.5708C7.37204 21.8051 7.57787 22.0299 7.79321 22.2453C8.43912 22.8922 9.17504 23.4426 9.9782 23.8793C10.8014 24.3175 11.685 24.6312 12.6002 24.8103C13.2255 24.9372 13.8621 25.0009 14.5002 25.0003C16.3677 24.9998 18.1936 24.449 19.7497 23.4166C21.3059 22.3842 22.5233 20.9161 23.2497 19.1958C23.37 18.9108 23.4777 18.6194 23.5727 18.3218C23.8564 17.4081 24.0006 16.4569 24.0002 15.5003C24.0035 14.534 23.8593 13.573 23.5727 12.6503V12.6503ZM14.5002 23.1003H14.2722C14.2375 22.6766 14.2375 22.2509 14.2722 21.8273C14.5547 20.8259 15.0839 19.9113 15.8112 19.1673C16.1483 19.0234 16.509 18.9429 16.8752 18.9298C17.3842 18.9267 17.8805 18.7712 18.3002 18.4833C18.4094 18.3766 18.4894 18.2438 18.5326 18.0974C18.5759 17.9511 18.5809 17.7961 18.5472 17.6473C18.442 17.2392 18.2569 16.8561 18.0025 16.5201C17.7481 16.1842 17.4295 15.9021 17.0652 15.6903C16.6353 15.5525 16.1867 15.482 15.7352 15.4813C15.0731 15.4744 14.4173 15.3522 13.7972 15.1203C13.6153 14.9917 13.4495 14.8418 13.3032 14.6738C12.9872 14.2959 12.5824 14.0021 12.1252 13.8188C11.9333 13.7858 11.7366 13.7941 11.5482 13.8433C11.3598 13.8924 11.184 13.9812 11.0327 14.1038C10.3755 14.5439 9.5885 14.7482 8.8002 14.6833C8.1844 14.6019 7.57494 14.4781 6.97621 14.3128C7.25945 12.5222 8.1734 10.8919 9.55311 9.71599C10.9328 8.54011 12.6874 7.89612 14.5002 7.90026H15.1367C15.0565 8.5709 15.1016 9.25059 15.2697 9.90476C15.524 10.3213 15.9288 10.6241 16.4002 10.7503L16.6852 10.8833C16.7893 11.269 16.7893 11.6755 16.6852 12.0613C16.6005 12.314 16.6005 12.5875 16.6852 12.8403C17.3082 13.4734 18.0993 13.9151 18.9652 14.1133H19.1837C19.2673 14.1166 19.3507 14.1032 19.429 14.0738C19.5073 14.0445 19.5789 13.9997 19.6397 13.9423C19.8581 13.6666 20.0021 13.3395 20.0577 12.9923C20.2389 13.0548 20.4323 13.0737 20.6222 13.0473C20.812 13.0208 20.993 12.9499 21.1502 12.8403C21.2967 12.6634 21.3803 12.4428 21.3877 12.2133C21.9447 13.3745 22.1975 14.6582 22.1224 15.9439C22.0472 17.2296 21.6465 18.4751 20.958 19.5635C20.2694 20.6519 19.3156 21.5475 18.186 22.1661C17.0564 22.7848 15.7881 23.1062 14.5002 23.1003V23.1003Z" fill="#DBDBDB"/>
</g>
<defs>
<clipPath id="clip0_13_67">
<rect width="19" height="19" fill="white" transform="translate(5 6)"/>
</clipPath>
</defs>
</svg>
