<svg width="1135" height="233" viewBox="0 0 1135 233" fill="none" xmlns="http://www.w3.org/2000/svg">
<path d="M244.689 116V50.5455H258.528V77.5518H286.621V50.5455H300.428V116H286.621V88.9616H258.528V116H244.689ZM316.544 61.9553V50.5455H370.302V61.9553H350.262V116H336.584V61.9553H316.544ZM383.862 61.9553V50.5455H437.619V61.9553H417.58V116H403.901V61.9553H383.862ZM453.672 116V50.5455H479.496C484.46 50.5455 488.689 51.4936 492.184 53.3899C495.678 55.2649 498.341 57.875 500.174 61.2202C502.028 64.544 502.954 68.3793 502.954 72.7259C502.954 77.0724 502.017 80.9077 500.142 84.2315C498.267 87.5554 495.55 90.1442 491.992 91.9979C488.455 93.8516 484.172 94.7784 479.144 94.7784H462.685V83.6882H476.907C479.57 83.6882 481.765 83.2301 483.491 82.3139C485.238 81.3764 486.538 80.0874 487.39 78.4467C488.263 76.7848 488.7 74.8778 488.7 72.7259C488.7 70.5526 488.263 68.6562 487.39 67.0369C486.538 65.3963 485.238 64.1285 483.491 63.2337C481.743 62.3175 479.528 61.8594 476.843 61.8594H467.511V116H453.672ZM534.874 65.15H581.584V74.87H534.874V65.15ZM518.134 81.35H598.774V91.52H518.134V81.35ZM539.914 89.45H551.614C549.904 106.19 545.584 118.07 521.824 124.37C520.744 121.49 517.954 116.99 515.524 114.74C536.134 110.15 538.564 101.78 539.914 89.45ZM563.134 87.74H574.024V109.7C574.024 112.58 574.564 113.03 577.714 113.03C579.154 113.03 585.004 113.03 586.714 113.03C589.684 113.03 590.224 111.5 590.584 102.05C592.744 103.76 597.424 105.47 600.214 106.19C599.134 119.33 596.254 122.75 587.704 122.75C585.634 122.75 578.254 122.75 576.184 122.75C565.654 122.75 563.134 119.6 563.134 109.88V87.74ZM552.424 39.68H563.944V55.97H552.424V39.68ZM519.754 48.32H597.064V69.74H585.454V58.49H530.734V69.74H519.754V48.32ZM655.294 49.85C647.824 60.47 634.054 72.62 619.294 80.81C617.854 78.29 614.794 74.33 612.454 72.08C627.934 64.25 642.514 50.39 649.174 39.23H660.424C670.054 53.09 684.724 64.88 699.034 71C696.334 73.79 693.904 77.39 691.924 80.72C678.064 73.07 662.944 60.56 655.294 49.85ZM624.694 92.06H686.254V101.42H624.694V92.06ZM629.284 72.17H682.114V81.62H629.284V72.17ZM617.494 112.31H694.354V121.94H617.494V112.31ZM649.624 76.4H661.054V117.71H649.624V76.4ZM749.164 47.69L756.274 39.41C763.564 42.83 773.104 48.5 777.694 52.91L769.954 62.18C765.814 57.68 756.544 51.56 749.164 47.69ZM743.224 84.23H789.934V94.58H743.224V84.23ZM736.744 110.96H795.154V121.22H736.744V110.96ZM739.984 59.21H793.264V69.47H739.984V59.21ZM760.504 62.63H771.754V115.55H760.504V62.63ZM716.314 47.96L722.164 40.04C727.924 42.11 735.574 45.98 739.354 49.22L733.054 58.04C729.544 54.8 722.164 50.48 716.314 47.96ZM710.284 72.44L715.864 64.25C721.714 66.23 729.544 69.92 733.414 72.89L727.474 81.89C723.874 78.83 716.224 74.78 710.284 72.44ZM714.154 115.73C718.924 108.98 725.854 97.73 731.254 87.38L739.174 94.49C734.404 104.03 728.644 114.29 723.244 123.02L714.154 115.73ZM821.794 47.78H831.514V124.28H821.794V47.78ZM808.564 72.26H842.674V81.35H808.564V72.26ZM821.884 77.03L827.824 80.09C824.494 91.16 818.374 104.84 811.804 112.31C810.904 109.07 808.564 104.12 806.944 101.15C812.884 95.66 818.914 85.13 821.884 77.03ZM831.154 81.26C833.854 83.42 842.674 92.24 844.744 94.4L837.904 101.51C835.024 97.28 828.274 89.27 824.944 85.67L831.154 81.26ZM808.204 58.04L815.224 55.52C817.564 59.12 819.904 64.07 820.894 67.22L813.514 70.19C812.704 66.95 810.454 61.82 808.204 58.04ZM837.724 54.8L845.824 56.87C843.664 61.55 841.594 66.23 839.614 69.47L832.234 67.58C834.124 64.16 836.464 58.58 837.724 54.8ZM839.884 40.76L844.924 49.13C835.024 51.56 821.614 53 810.364 53.45C810.004 51.2 808.924 47.78 807.934 45.62C818.914 44.63 831.604 42.92 839.884 40.76ZM846.274 43.73H883.534V53.27H846.274V43.73ZM881.734 43.82H883.534L885.244 43.46L891.724 46.79C883.444 64.79 865.354 76.76 846.454 82.88C845.374 80.36 842.854 76.4 840.964 74.33C858.334 69.65 875.524 58.85 881.734 45.35V43.82ZM856.534 48.5C863.284 61.1 877.144 70.37 893.974 74.06C892.084 76.22 889.474 80.45 888.304 83.15C870.844 78.2 857.254 67.4 849.334 51.56L856.534 48.5ZM847.174 86.39H886.954V95.84H847.174V86.39ZM843.394 102.05H891.004V111.59H843.394V102.05ZM861.664 79.28H872.554V124.19H861.664V79.28Z" fill="#D81E06"/>
<path d="M426.84 164.32C423.56 169.2 417.12 175.16 410.36 179.12C409.96 178.4 409.12 177.36 408.48 176.72C415.36 172.92 422.04 166.56 425.12 161.36H428.2C432.36 167.28 439.36 173.12 445.64 176.24C444.88 177 444.16 178 443.64 178.88C437.44 175.32 430.44 169.36 426.84 164.32ZM413.32 185.12H440.6V187.8H413.32V185.12ZM415.12 176.16H439.04V178.88H415.12V176.16ZM410.04 194.4H444.12V197.12H410.04V194.4ZM425.28 177.28H428.44V195.92H425.28V177.28ZM461.2 179.2H472.16V181.68H461.2V179.2ZM461.2 186.16H472.28V188.64H461.2V186.16ZM452.96 193.32H481.2V196.12H452.96V193.32ZM451.12 171.96H482.84V198.24H479.8V174.76H454.04V198.24H451.12V171.96ZM459.8 173.72H462.52V194.6H459.8V173.72ZM471 173.72H473.76V194.48H471V173.72ZM465 165.4L468.48 166.2C467.64 168.88 466.8 171.96 466 173.96L463.28 173.2C463.92 171.04 464.72 167.72 465 165.4ZM449.32 164.08H484.76V166.96H449.32V164.08ZM497.92 197.24C495.32 194.08 491.88 190.68 489.04 188.36L491.64 186.08C494.52 188.4 498.12 192 500.64 194.92L497.92 197.24ZM529.12 185.88H564.88V188.4H529.12V185.88ZM535.84 171.28H560.6V173.4H535.84V171.28ZM535.84 176.08H560.72V178.24H535.84V176.08ZM535.36 166.16H562.24V168.64H535.36V166.16ZM546.16 167.56H549.08V181.92H546.16V167.56ZM545.4 182.68H548.4V198.2H545.4V182.68ZM544.76 186.8L547.08 188C543.12 192.16 536 195.96 530.12 197.8C529.68 197 528.8 195.88 528.12 195.28C534.08 193.76 541.12 190.4 544.76 186.8ZM549.08 186.8C552.68 190.32 559.68 193.52 565.68 195C565.04 195.6 564.2 196.72 563.76 197.48C557.8 195.72 550.72 192.04 546.76 188L549.08 186.8ZM548.04 161.4L551.4 161.88C550.28 164 549.04 166.24 548 167.76L545.36 167.2C546.32 165.6 547.48 163.12 548.04 161.4ZM537.6 161.36L540.72 161.92C538.36 166.32 535 171.2 530.24 175.2C529.72 174.52 528.72 173.6 528.04 173.2C532.52 169.68 535.8 165 537.6 161.36ZM533.96 167.8H536.84V181H563.8V183.4H533.96V167.8ZM570.84 168.56H603.08V187.4H599.96V171.52H573.84V187.6H570.84V168.56ZM572.44 182.16H601.76V185.08H572.44V182.16ZM585.32 161.4H588.44V198.16H585.32V161.4ZM617.92 197.24C615.32 194.08 611.88 190.68 609.04 188.36L611.64 186.08C614.52 188.4 618.12 192 620.64 194.92L617.92 197.24ZM664.28 177.24H683.48V179.96H664.28V177.24ZM664.28 185.32H683.48V188H664.28V185.32ZM664.4 193.48H685.36V196.32H664.4V193.48ZM672.72 170.24H675.6V195.16H672.72V170.24ZM675.72 161.6L678.76 162.44C677.68 165.4 676.36 168.92 675.28 171.16L672.84 170.32C673.88 168 675.08 164.2 675.72 161.6ZM666 161.4L668.92 162.2C666.68 168.8 663.12 175.24 659.24 179.4C658.76 178.8 657.68 177.6 657 177.08C660.8 173.32 664.04 167.44 666 161.4ZM665.64 169.32H684.44V172.04H665.64V198.2H662.8V171.64L665.04 169.32H665.64ZM649.6 165.96L651.52 163.88C654.08 165.52 657.28 167.92 658.76 169.64L656.76 172C655.32 170.24 652.2 167.68 649.6 165.96ZM648.44 193.12C650.56 190.32 653.68 185.64 656.08 181.52L658.28 183.48C656.08 187.32 653.32 191.76 650.96 195.12L648.44 193.12ZM688.92 163.6H703.92V166.36H688.92V163.6ZM693.32 175.52H702.56V192.68H693.32V189.96H699.8V178.2H693.32V175.52ZM694.12 164.8L697 165.2C695.76 173.64 693.64 181.48 689.96 186.68C689.64 186.08 688.68 184.72 688.08 184.08C691.4 179.52 693.12 172.36 694.12 164.8ZM692 175.52H694.68V196.04H692V175.52ZM707 185.68H722.6V188.32H707V185.68ZM707.2 178.6H722.56V181H707.2V178.6ZM707.2 171.64H722.56V174.24H707.2V171.64ZM713.32 172.84H716V186.8H713.32V172.84ZM721.16 171.64H724.04V194.76C724.04 196.44 723.72 197.32 722.56 197.76C721.48 198.28 719.56 198.32 716.8 198.32C716.68 197.48 716.28 196.24 715.88 195.44C717.92 195.52 719.88 195.52 720.44 195.52C721 195.48 721.16 195.32 721.16 194.76V171.64ZM705.6 171.64H708.36V182.24C708.36 187.24 707.64 193.92 703.4 198.32C703 197.76 701.84 196.76 701.24 196.4C705.12 192.4 705.6 186.72 705.6 182.2V171.64ZM710 161.4L712.76 162.08C710.92 167.28 707.96 172.36 704.8 175.64C704.32 175.16 703.2 174.12 702.56 173.68C705.64 170.72 708.4 166.08 710 161.4ZM710 164.76H718.04V167.28H708.76L710 164.76ZM717.12 164.76H717.8L718.24 164.6L720.2 165.92C719.04 168.44 717.12 171.36 715.64 173.24C715.12 172.84 714.2 172.28 713.56 171.92C714.88 170.16 716.44 167.28 717.12 165.32V164.76Z" fill="#969390"/>
</svg>
