<?xml version="1.0" standalone="no"?><!DOCTYPE svg PUBLIC "-//W3C//DTD SVG 1.1//EN" "http://www.w3.org/Graphics/SVG/1.1/DTD/svg11.dtd"><svg t="1688007786555" class="icon" viewBox="0 0 1024 1024" version="1.1" xmlns="http://www.w3.org/2000/svg" p-id="11749" width="256" height="256" xmlns:xlink="http://www.w3.org/1999/xlink"><path d="M887.466667 0a136.533333 136.533333 0 0 1 136.533333 136.533333v750.933334a136.533333 136.533333 0 0 1-136.533333 136.533333H136.533333a136.533333 136.533333 0 0 1-136.533333-136.533333V136.533333a136.533333 136.533333 0 0 1 136.533333-136.533333h750.933334zM640.477867 258.048L631.466667 465.3056c-91.613867 1.501867-165.205333 3.754667-220.7744 6.007467 4.5056-108.1344 8.260267-178.722133 10.513066-212.514134L320.580267 258.048l-18.0224 415.266133c-1.501867 21.026133-4.5056 48.059733-9.0112 81.1008l111.889066 3.003734V674.065067c0-48.810667 0.750933-101.376 3.003734-157.696 52.565333-1.501867 126.907733-3.754667 221.525333-6.007467l-7.509333 165.205333c-1.501867 21.026133-3.754667 47.3088-7.509334 78.848l110.3872 3.003734V681.5744c0-48.059733 3.754667-161.450667 12.014934-339.421867l3.754666-83.3536-100.625066-0.750933z" fill="#d81e06" p-id="11750"></path></svg>